<svg width="28" height="28" viewBox="0 0 28 28" fill="none" xmlns="http://www.w3.org/2000/svg">
<g id="vuesax/bold/crown">
<g id="crown">
<path id="Vector" d="M19.8334 25.6667H8.16675C7.68841 25.6667 7.29175 25.27 7.29175 24.7917C7.29175 24.3133 7.68841 23.9167 8.16675 23.9167H19.8334C20.3117 23.9167 20.7084 24.3133 20.7084 24.7917C20.7084 25.27 20.3117 25.6667 19.8334 25.6667Z" fill="#FFC531"/>
<path id="Vector_2" d="M23.7417 6.44L19.075 9.77666C18.4567 10.22 17.57 9.95166 17.3017 9.24L15.0967 3.36C14.7233 2.345 13.2883 2.345 12.915 3.36L10.6983 9.22833C10.43 9.95166 9.55501 10.22 8.93668 9.765L4.27001 6.42833C3.33668 5.775 2.10001 6.69666 2.48501 7.78166L7.33835 21.3733C7.50168 21.84 7.94501 22.1433 8.43501 22.1433H19.5533C20.0433 22.1433 20.4867 21.8283 20.65 21.3733L25.5033 7.78166C25.9 6.69666 24.6633 5.775 23.7417 6.44ZM16.9167 17.2083H11.0833C10.605 17.2083 10.2083 16.8117 10.2083 16.3333C10.2083 15.855 10.605 15.4583 11.0833 15.4583H16.9167C17.395 15.4583 17.7917 15.855 17.7917 16.3333C17.7917 16.8117 17.395 17.2083 16.9167 17.2083Z" fill="#FFC531"/>
</g>
</g>
</svg>
